<svg width="70" height="95" viewBox="0 0 70 95" fill="none" xmlns="http://www.w3.org/2000/svg">
<path d="M21.0567 80.7944C21.3108 80.9097 21.6049 80.9589 21.8816 81.0047L25.4841 94.5331L11.8826 88.8097L7.82191 73.4274L19.0677 77.5654C19.013 78.905 19.7607 80.2065 21.0567 80.7944Z" fill="white"/>
<path d="M23.4686 80.9436C24.3593 80.6654 25.132 80.0231 25.5478 79.1065C25.9164 78.294 25.9381 77.4124 25.6755 76.6283L65.6925 41.3569L69.3774 58.4436L27.1994 94.156L23.4686 80.9436Z" fill="white"/>
<path d="M23.8598 74.6154C22.4443 73.9732 20.6419 74.504 19.6873 75.6368L8.14154 71.4969L50.8877 34.9388L64.2436 40.1252L24.2359 74.8149C24.1163 74.7416 23.9909 74.6748 23.8598 74.6154Z" fill="white"/>
<path d="M43.5584 16.0165C43.1562 14.5151 43.9742 12.8237 45.2477 12.0669L43.0493 0L0 36.2006L2.93518 50.2242L43.6939 16.4202C43.6411 16.2902 43.5957 16.1556 43.5584 16.0165Z" fill="white"/>
<path d="M50.1124 14.2605C50.1846 14.5299 50.1851 14.8281 50.1851 15.1086L62.9434 20.8725L59.8239 6.62459L45.0061 4.52782e-05L47.2516 11.7707C48.5822 11.9356 49.7441 12.8858 50.1124 14.2605Z" fill="white"/>
<path d="M49.8656 16.6643C49.4456 17.4976 48.6857 18.155 47.7135 18.4155C46.8517 18.6464 45.9785 18.5238 45.2477 18.1366L3.91359 51.8549L20.1689 58.2813L62.2911 22.5031L49.8656 16.6643Z" fill="white"/>
</svg>
