<svg width="361" height="95" viewBox="0 0 361 95" fill="none" xmlns="http://www.w3.org/2000/svg">
<path d="M21.0567 80.7944C21.3108 80.9097 21.6049 80.9589 21.8816 81.0047L25.4841 94.5331L11.8826 88.8097L7.82191 73.4274L19.0677 77.5654C19.013 78.905 19.7607 80.2065 21.0567 80.7944Z" fill="white"/>
<path d="M23.4686 80.9436C24.3593 80.6654 25.132 80.0231 25.5478 79.1065C25.9164 78.294 25.9381 77.4124 25.6755 76.6283L65.6925 41.3569L69.3774 58.4436L27.1994 94.156L23.4686 80.9436Z" fill="white"/>
<path d="M23.8598 74.6154C22.4443 73.9732 20.6419 74.504 19.6873 75.6368L8.14154 71.4969L50.8877 34.9388L64.2436 40.1252L24.2359 74.8149C24.1163 74.7416 23.9909 74.6748 23.8598 74.6154Z" fill="white"/>
<path d="M43.5584 16.0165C43.1562 14.5151 43.9742 12.8237 45.2477 12.0669L43.0493 0L0 36.2006L2.93518 50.2242L43.6939 16.4202C43.6411 16.2902 43.5957 16.1556 43.5584 16.0165Z" fill="white"/>
<path d="M50.1124 14.2605C50.1846 14.5299 50.1851 14.8281 50.1851 15.1086L62.9434 20.8725L59.8239 6.62459L45.0061 4.52782e-05L47.2516 11.7707C48.5822 11.9356 49.7441 12.8858 50.1124 14.2605Z" fill="white"/>
<path d="M49.8656 16.6643C49.4456 17.4976 48.6857 18.155 47.7135 18.4155C46.8517 18.6464 45.9785 18.5238 45.2477 18.1366L3.91359 51.8549L20.1689 58.2813L62.2911 22.5031L49.8656 16.6643Z" fill="white"/>
<path d="M101.377 54.9465L110.785 55.0745C111.105 59.4265 114.561 62.4345 120.065 62.4345C124.481 62.4345 127.745 60.5145 127.745 56.9945C127.745 53.2185 124.097 52.4505 116.609 50.9785C109.057 49.5705 102.401 47.1385 102.401 38.0505C102.401 30.1145 108.993 24.4825 119.105 24.4825C129.665 24.4825 136.385 29.9865 136.513 38.5625H127.105C126.657 34.7865 123.777 32.1625 119.105 32.1625C115.009 32.1625 112.065 33.8905 112.065 37.3465C112.065 40.9945 115.585 41.7625 123.009 43.1705C130.689 44.5785 137.473 46.8825 137.409 55.9065C137.345 64.2905 130.433 70.0505 119.937 70.0505C108.545 70.0505 101.441 64.0345 101.377 54.9465Z" fill="white"/>
<path d="M161.217 36.3865C168.513 36.3865 174.529 40.2905 174.529 51.4265V69.6665H165.505V52.1945C165.505 46.8185 163.329 43.8105 158.849 43.8105C154.241 43.8105 151.489 47.1385 151.489 52.7705V69.6665H142.465V24.8665H151.489V40.8025C153.601 38.2425 156.545 36.3865 161.217 36.3865Z" fill="white"/>
<path d="M196.154 70.0505C185.658 70.0505 178.81 63.3305 178.81 53.2185C178.81 43.1065 185.658 36.3865 196.154 36.3865C206.65 36.3865 213.498 43.1065 213.498 53.2185C213.498 63.3945 206.65 70.0505 196.154 70.0505ZM196.154 62.6905C201.21 62.6905 204.346 58.7865 204.346 53.2185C204.346 47.6505 201.21 43.7465 196.154 43.7465C191.098 43.7465 188.026 47.6505 188.026 53.2185C188.026 58.7865 191.098 62.6905 196.154 62.6905Z" fill="white"/>
<path d="M234.721 70.0505C223.777 70.0505 217.185 63.4585 217.185 53.2825C217.185 43.0425 223.905 36.3865 234.081 36.3865C243.937 36.3865 250.593 42.5305 250.721 52.1945C250.721 53.1545 250.657 54.2425 250.465 55.2665H226.593V55.7145C226.785 60.3865 229.793 63.2025 234.337 63.2025C237.985 63.2025 240.545 61.6025 241.313 58.5305H250.209C249.185 64.9305 243.489 70.0505 234.721 70.0505ZM226.785 49.3785H241.633C240.993 45.3465 238.241 43.1065 234.145 43.1065C230.241 43.1065 227.297 45.4745 226.785 49.3785Z" fill="white"/>
<path d="M258.533 61.1545V41.8265H252.645V37.0265H258.533V27.8745H263.781V37.0265H272.229V41.8265H263.781V61.0905C263.781 63.8425 264.741 64.8665 267.557 64.8665H272.741V69.6665H267.045C260.773 69.6665 258.533 66.9145 258.533 61.1545Z" fill="white"/>
<path d="M292.392 37.0265H293.864V42.1465H291.24C284.392 42.1465 282.536 47.8425 282.536 53.0265V69.6665H277.288V37.0265H281.832L282.536 41.9545C284.072 39.4585 286.568 37.0265 292.392 37.0265Z" fill="white"/>
<path d="M326.152 64.8665H327.816V69.6665H324.936C320.584 69.6665 319.112 67.8105 319.048 64.6105C317 67.5545 313.736 70.0505 308.104 70.0505C300.936 70.0505 296.072 66.4665 296.072 60.5145C296.072 53.9865 300.616 50.3385 309.192 50.3385H318.792V48.0985C318.792 43.8745 315.784 41.3145 310.664 41.3145C306.056 41.3145 302.984 43.4905 302.344 46.8185H297.096C297.864 40.4185 303.048 36.6425 310.92 36.6425C319.24 36.6425 324.04 40.8025 324.04 48.4185V62.6905C324.04 64.4185 324.68 64.8665 326.152 64.8665ZM318.792 56.3545V54.7545H308.68C304.008 54.7545 301.384 56.4825 301.384 60.1945C301.384 63.3945 304.136 65.5705 308.488 65.5705C315.016 65.5705 318.792 61.7945 318.792 56.3545Z" fill="white"/>
<path d="M331.851 69.6665V24.8665H337.099V54.3705L353.483 37.0265H359.947L347.211 50.5305L360.843 69.6665H354.507L343.691 54.3065L337.099 61.0905V69.6665H331.851Z" fill="white"/>
</svg>
