<svg xmlns="http://www.w3.org/2000/svg" version="1.1" xlink="http://www.w3.org/1999/xlink" xmlns:svgjs="http://svgjs.com/svgjs" width="100%" height="100%" preserveAspectRatio="xMidYMid meet" viewBox="0 0 300.0013122558594 83.77078247070312" overflow="visible"><defs id="SvgjsDefs76378"></defs><g id="SvgjsG76379" transform="scale(0.6493506493506493)" opacity="1"><g id="SvgjsG76380" class="uLzptj2s6" transform="translate(0, 0) scale(1.290069817946861)" light-content="false" non-strokable="false" fill="#a41922"><path d="M24 0h76v76c0 13.255-10.745 24-24 24H0V24C0 10.745 10.745 0 24 0z"></path></g><g id="SvgjsG76381" class="sc_k66glru" transform="translate(19.8485678264162, 19.84722813853341) scale(0.8931252551761927)" light-content="true" non-strokable="false" fill="#ffffff"><path d="M84.5 70.801c-3.602-2.5-7.3-3-8-3-1.398-.102-3.102-.5-5.2-1-3.8-1-8.8-2.602-14.897-4.898C54.102 61 51.7 60 49.2 59l-.102-.101h-.101c-2.899-1.2-6.102-2.399-9.399-3.801-.199-.102-.5-.102-.8-.102-5.2 1.2-10.7.899-15.7-.699-1.898-.601-4 0-5.199 1.7-1.5 1.898-2.8 4.5-4 7.699-2.101 5.601-3.3 12.102-3.3 15.102C10.601 85 17.7 90 26.398 90h47.2c4.101 0 8-1.102 11-3.102 3.101-2.102 4.8-5 4.8-8.102 0-3.097-1.699-5.898-4.898-7.996zm-68.199-6.2c1.102-3 2.3-5.3 3.602-7 .5-.6 1.101-.898 1.8-.898.2 0 .399 0 .602.102 5.3 1.7 11.102 2 16.602.898 2.898 1.2 5.5 2.301 8.102 3.301L45.399 66c-.2.7.102 1.399.8 1.602.102 0 .302.101.4.101.5 0 1-.3 1.199-.898l1.699-5c1.699.7 3.398 1.3 5 1.898l-1.602 4.801c-.199.7.102 1.399.801 1.602.102 0 .3.101.398.101.5 0 1-.3 1.2-.898l1.601-4.7c1.801.7 3.399 1.2 5 1.802L60.2 71c-.2.699.101 1.398.8 1.6.102 0 .301.102.4.102.5 0 1-.3 1.198-.898l1.5-4.602c1.899.602 3.5 1.102 5.102 1.5l-1.602 4.7c-.199.699.102 1.398.801 1.601.102 0 .3.102.399.102.5 0 1-.301 1.199-.899l1.601-4.898c1.801.398 3.301.7 4.5.8.399 0 3.7.4 6.899 2.602 1.398.899 2.3 2 2.898 3.2-.601 1.199-1.601 2.3-2.898 3.199-2.5 1.699-5.899 2.699-9.5 2.699L55.2 81.8l1.699-4.398c.3-.602-.102-1.399-.7-1.602l-4.5-1.8c-.6-.301-1.398.1-1.6.699L47.296 81.8H44.9l3.2-7.898c.3-.602-.102-1.399-.7-1.602l-4.5-1.8a1.68 1.68 0 0 0-1 0c-.3.1-.602.398-.7.699l-4.2 10.7h-2.5l4.602-11.5c.102-.301.102-.7 0-1-.101-.301-.398-.5-.7-.7L33.9 67c-.602-.3-1.398.102-1.602.7l-5.601 14.198h-.2c-6.101 0-11.5-2.8-12.897-6.699.402-3 1.3-6.898 2.703-10.598zM54.102 77.7L52.5 81.899H50l2-5zM42.2 81.899h-2.5l3.398-8.602 2.102.899zm-10.398 0h-2.398l4.8-12.102 2.102.8zm51.301 2.902c-2.5 1.7-5.898 2.7-9.5 2.7H26.4c-6.898 0-12.801-3.7-13.199-8.2 2.898 3.102 7.8 5.102 13.199 5.102h47.199c4.102 0 8-1.102 11-3.102.8-.601 1.602-1.199 2.2-1.898-.196 1.898-1.497 3.898-3.696 5.398zM73.602 10H26.399c-4.102 0-8 1.102-11 3.102-3.102 2.101-4.8 5-4.8 8.101s1.698 5.899 4.8 8.102c3.602 2.5 7.3 3 8 3 1.398.101 3.102.5 5.2 1 3.8 1 8.8 2.601 14.897 4.898 2.2.801 4.602 1.801 7.2 2.801 0 0 .101 0 .101.102h.102c2.898 1.199 6.101 2.398 9.398 3.8.2.102.5.102.8.102 5.102-1.2 10.7-.899 15.7.7.5.198.898.198 1.398.198 1.399 0 2.899-.699 3.8-1.898 1.5-1.898 2.802-4.5 4-7.7 2.102-5.6 3.302-12.101 3.302-15.101C89.398 15 82.3 10 73.602 10zM83.7 35.398c-1.102 3-2.3 5.3-3.602 7-.601.8-1.601 1.102-2.398.8-3.102-1-6.5-1.6-9.898-1.6-2.301 0-4.602.198-6.801.698-2.899-1.199-5.5-2.3-8.102-3.3l1.7-5.102c.199-.7-.102-1.398-.801-1.602-.7-.199-1.399.102-1.602.801l-1.7 5c-1.698-.699-3.398-1.3-5-1.898l1.602-4.801c.2-.7-.101-1.398-.8-1.602-.7-.199-1.399.102-1.602.801l-1.602 4.7c-1.8-.7-3.398-1.2-5-1.801l1.5-4.602c.2-.7-.101-1.398-.8-1.602-.7-.199-1.399.102-1.602.801l-1.5 4.602c-1.898-.602-3.5-1.102-5.102-1.5l1.602-4.7c.2-.699-.101-1.398-.8-1.601-.7-.2-1.4.101-1.602.8l-1.602 4.9c-1.8-.4-3.3-.7-4.602-.802-.398 0-3.699-.398-6.898-2.601-1.398-.899-2.3-2-2.898-3.2.601-1.199 1.601-2.3 2.898-3.199 2.5-1.699 5.898-2.699 9.5-2.699h18.398L43 22.5c-.3.602.102 1.399.7 1.602l4.5 1.8c.199.102.3.102.5.102.5 0 1-.3 1.199-.8l2.8-7.102h2.399L52 26.1c-.3.601.102 1.398.7 1.602l4.5 1.8c.199.102.3.102.5.102s.3 0 .5-.102c.3-.101.6-.398.699-.699L63 18.101h2.5l-4.601 11.5c-.102.3-.102.7 0 1 .101.3.398.5.699.7l4.5 1.8c.101.102.3.102.5.102.199 0 .3 0 .5-.102.3-.101.5-.398.699-.7l5.602-14.198h.199c6.101 0 11.5 2.8 12.898 6.7C86 27.8 85.1 31.698 83.699 35.397zM45.899 22.3l1.602-4.2H50l-2 5zm11.902-4.2h2.5l-3.398 8.602-2.102-.898zm10.398 0h2.398l-4.8 12.103-2.102-.801zm5.402-2.5H26.398c-4.101 0-8 1.102-11 3.102-.8.602-1.601 1.2-2.199 1.899.2-2 1.398-3.899 3.602-5.399 2.5-1.699 5.898-2.699 9.5-2.699H73.5c6.898 0 12.8 3.7 13.199 8.2C83.898 17.6 78.999 15.6 73.6 15.6z"></path></g><g id="SvgjsG76382" class="text" transform="translate(309.531992832742, 90.65453146593754) scale(1)" light-content="false" fill="#a41922"><path d="M-140.96 -0.07C-138.08 0.25 -135.22 0.41 -132.36 0.41C-128.31 0.41 -124.97 0 -122.34 -0.83C-119.72 -1.66 -117.68 -3.19 -116.23 -5.42C-114.78 -7.66 -114.05 -10.83 -114.05 -14.93L-114.05 -17.48C-114.05 -21.54 -115.26 -24.81 -117.68 -27.29C-120.1 -29.78 -123.59 -31.03 -128.15 -31.03L-132.91 -31.03C-136.37 -31.03 -138.1 -32.45 -138.1 -35.31L-138.1 -36.28C-138.1 -38.07 -137.5 -39.31 -136.3 -39.97C-135.1 -40.64 -133.28 -40.98 -130.84 -40.98C-127.71 -40.98 -122.94 -40.77 -116.54 -40.35L-116.54 -49.75C-122.2 -51.04 -127.45 -51.69 -132.29 -51.69C-137.91 -51.69 -142.17 -50.47 -145.08 -48.02C-147.98 -45.58 -149.43 -41.87 -149.43 -36.9L-149.43 -34.48C-149.43 -29.28 -148.13 -25.51 -145.52 -23.18C-142.92 -20.86 -138.97 -19.69 -133.67 -19.69L-129.67 -19.69C-128.38 -19.69 -127.34 -19.36 -126.56 -18.69C-125.77 -18.02 -125.38 -17.09 -125.38 -15.89L-125.38 -14.58C-125.38 -12.97 -126 -11.85 -127.25 -11.23C-128.49 -10.61 -130.4 -10.3 -132.98 -10.3C-139.06 -10.3 -144.29 -10.5 -148.67 -10.92L-148.67 -1.45C-146.41 -0.85 -143.84 -0.39 -140.96 -0.07Z M-107.76 -52.65L-107.76 0L-95.81 0L-95.81 -24.67C-94.93 -25.36 -93.95 -25.94 -92.87 -26.4C-91.79 -26.86 -90.67 -27.09 -89.52 -27.09C-88.23 -27.09 -87.18 -26.74 -86.38 -26.05C-85.57 -25.36 -85.17 -24.28 -85.17 -22.8L-85.17 0L-73.21 0L-73.21 -24.39C-73.21 -28.72 -74.09 -32.04 -75.84 -34.34C-77.59 -36.65 -80.54 -37.8 -84.68 -37.8C-86.66 -37.8 -88.7 -37.37 -90.8 -36.52C-92.89 -35.67 -94.56 -34.67 -95.81 -33.51L-95.81 -52.65Z M-60.32 -1.49C-57.81 -0.26 -54.39 0.35 -50.06 0.35C-45.59 0.35 -42.1 -0.24 -39.59 -1.42C-37.08 -2.59 -35.29 -4.54 -34.2 -7.26C-33.12 -9.97 -32.58 -13.77 -32.58 -18.66C-32.58 -23.59 -33.14 -27.43 -34.27 -30.2C-35.4 -32.96 -37.22 -34.92 -39.73 -36.07C-42.24 -37.22 -45.69 -37.8 -50.06 -37.8C-54.44 -37.8 -57.87 -37.23 -60.36 -36.1C-62.85 -34.98 -64.65 -33.04 -65.78 -30.3C-66.91 -27.56 -67.48 -23.68 -67.48 -18.66C-67.48 -13.91 -66.91 -10.17 -65.78 -7.43C-64.65 -4.69 -62.83 -2.71 -60.32 -1.49ZM-46.68 -9.74C-47.41 -9.33 -48.54 -9.12 -50.06 -9.12C-51.54 -9.12 -52.64 -9.33 -53.38 -9.74C-54.12 -10.16 -54.66 -11.03 -55 -12.37C-55.35 -13.7 -55.52 -15.82 -55.52 -18.73C-55.52 -21.63 -55.35 -23.74 -55 -25.05C-54.66 -26.36 -54.13 -27.23 -53.41 -27.64C-52.7 -28.05 -51.58 -28.26 -50.06 -28.26C-48.54 -28.26 -47.41 -28.05 -46.68 -27.64C-45.94 -27.23 -45.4 -26.35 -45.05 -25.01C-44.71 -23.68 -44.53 -21.58 -44.53 -18.73C-44.53 -15.87 -44.71 -13.76 -45.05 -12.4C-45.4 -11.04 -45.94 -10.16 -46.68 -9.74Z M-20.7 -1.31C-18.25 -0.21 -14.87 0.35 -10.54 0.35C-7.77 0.35 -5.34 0.18 -3.25 -0.14C-1.15 -0.46 0.98 -0.92 3.14 -1.52L3.14 -8.5L-7.29 -8.5C-9.59 -8.5 -11.34 -8.68 -12.54 -9.05C-13.74 -9.42 -14.58 -10.02 -15.06 -10.85C-15.55 -11.68 -15.84 -12.88 -15.93 -14.44L-7.98 -14.44C-3.93 -14.44 -0.84 -15.23 1.28 -16.79C3.4 -18.36 4.46 -21.01 4.46 -24.74C4.46 -28.19 3.96 -30.85 2.97 -32.72C1.98 -34.58 0.38 -35.9 -1.83 -36.66C-4.04 -37.42 -7.11 -37.8 -11.02 -37.8C-15.35 -37.8 -18.7 -37.23 -21.08 -36.1C-23.45 -34.98 -25.15 -33.04 -26.19 -30.3C-27.23 -27.56 -27.74 -23.63 -27.74 -18.52C-27.74 -13.54 -27.18 -9.71 -26.05 -7.01C-24.92 -4.32 -23.14 -2.42 -20.7 -1.31ZM-9.29 -21.49L-16.07 -21.49C-16.07 -24.48 -15.7 -26.52 -14.96 -27.61C-14.22 -28.69 -12.91 -29.23 -11.02 -29.23C-9.22 -29.23 -7.95 -28.88 -7.19 -28.19C-6.43 -27.5 -6.05 -26.33 -6.05 -24.67C-6.05 -23.52 -6.3 -22.7 -6.81 -22.22C-7.31 -21.73 -8.14 -21.49 -9.29 -21.49Z M21.46 -40.56L21.46 0L33.34 0L33.34 -40.56L46.82 -40.56L46.82 -51.27L7.98 -51.27L7.98 -40.56Z M49.99 -37.18L49.99 0L61.95 0L61.95 -22.04C62.92 -23.19 64.07 -24.05 65.4 -24.6C66.74 -25.15 68.31 -25.43 70.1 -25.43C71.07 -25.43 72.57 -25.34 74.59 -25.15L74.59 -37.38C73.81 -37.61 72.84 -37.73 71.69 -37.73C69.71 -37.73 67.94 -37.2 66.37 -36.14C64.8 -35.08 63.33 -33.63 61.95 -31.79L59.25 -37.18Z M79.36 -2.14C81.11 -0.44 83.42 0.41 86.27 0.41C88.9 0.41 91.28 -0.03 93.42 -0.93C95.57 -1.83 97.17 -2.79 98.23 -3.8L100.09 0L109.56 0L109.56 -24.95C109.56 -29.69 108.3 -33 105.79 -34.86C103.28 -36.73 99.52 -37.66 94.49 -37.66C88.64 -37.61 83.51 -36.81 79.08 -35.24L79.08 -28.4L90 -28.4C92.17 -28.4 93.79 -28.26 94.87 -27.99C95.96 -27.71 96.68 -27.27 97.05 -26.67C97.42 -26.07 97.6 -25.22 97.6 -24.12L97.6 -22.32L89.17 -22.32C85.03 -22.32 81.92 -21.43 79.85 -19.66C77.77 -17.89 76.74 -15.52 76.74 -12.58L76.74 -8.98C76.74 -6.13 77.61 -3.85 79.36 -2.14ZM95.32 -8.26C94.17 -7.91 93.2 -7.76 92.42 -7.81C89.89 -7.81 88.62 -8.87 88.62 -10.99L88.62 -12.44C88.62 -14.7 90.14 -15.99 93.18 -16.31L97.6 -16.72L97.6 -9.12C97.24 -8.89 96.48 -8.6 95.32 -8.26Z M116.26 -52.72L116.26 0L128.22 0L128.22 -14.23L132.08 -14.23L140.45 0L152.47 0L141.07 -19.56L151.29 -37.18L139.27 -37.18L132.22 -24.95L128.22 -24.95L128.22 -52.72Z"></path></g><rect id="SvgjsRect76383" width="301.89800716725784" height="1.208475734791524" fill="#333333" transform="translate(160.1019928327421, 95.89925302994729) scale(1)" light-content="false"></rect></g></svg>
