<?xml version="1.0" encoding="UTF-8"?>
<!-- Created with Inkscape (http://www.inkscape.org/) -->
<svg width="512" height="512" version="1.1" viewBox="0 0 512 512" xml:space="preserve" xmlns="http://www.w3.org/2000/svg"><g transform="translate(223.86 198.66)"><g transform="scale(.64935)"><g transform="matrix(6.1119 0 0 6.1119 -344.74 -305.93)"><path d="m30.962 0h98.045v98.045c0 17.1-13.862 30.962-30.962 30.962h-98.045v-98.045c0-17.1 13.862-30.962 30.962-30.962z" fill="#a41922" stroke-width="1.2901"/><path d="m95.318 83.081c-3.217-2.2328-6.5198-2.6794-7.145-2.6794-1.2486-0.0911-2.7705-0.44656-4.6443-0.89313-3.3939-0.89312-7.8595-2.3239-13.305-4.3745-2.0551-0.80649-4.2004-1.6996-6.4332-2.5927l-0.0911-0.0902h-0.09021c-2.5892-1.0718-5.4498-2.1426-8.3945-3.3948-0.17773-0.0911-0.44656-0.0911-0.7145-0.0911-4.6443 1.0718-9.5564 0.80292-14.022-0.6243-1.6952-0.53677-3.5725 0-4.6434 1.5183-1.3397 1.6952-2.5008 4.0191-3.5725 6.8762-1.8765 5.0024-2.9473 10.809-2.9473 13.488 0.0018 5.5392 6.3421 10.005 14.11 10.005h42.156c3.6627 0 7.145-0.98422 9.8244-2.7705 2.7696-1.8773 4.287-4.4656 4.287-7.2361 0-2.766-1.5174-5.2677-4.3745-7.1414zm-60.91-5.5374c0.98422-2.6794 2.0542-4.7336 3.217-6.2519 0.44656-0.53588 0.98333-0.80203 1.6076-0.80203 0.17862 0 0.35636 0 0.53766 0.0911 4.7336 1.5183 9.9155 1.7863 14.828 0.80203 2.5883 1.0718 4.9122 2.0551 7.2361 2.9482l-1.4379 4.4621c-0.17862 0.62519 0.0911 1.2495 0.7145 1.4308 0.0911 0 0.26972 0.0902 0.35725 0.0902 0.44656 0 0.89312-0.26794 1.0709-0.80203l1.5174-4.4656c1.5174 0.62519 3.0348 1.1611 4.4656 1.6952l-1.4308 4.2879c-0.17773 0.62519 0.0911 1.2495 0.71539 1.4308 0.0911 0 0.26794 0.09021 0.35546 0.09021 0.44656 0 0.89312-0.26794 1.0718-0.80203l1.4299-4.1977c1.6085 0.62519 3.0357 1.0718 4.4656 1.6094l-1.5138 4.0986c-0.17862 0.6243 0.0902 1.2486 0.7145 1.429 0.0911 0 0.26883 0.0911 0.35725 0.0911 0.44656 0 0.89312-0.26794 1.07-0.80203l1.3397-4.1102c1.696 0.53766 3.1259 0.98422 4.5567 1.3397l-1.4308 4.1977c-0.17773 0.6243 0.0911 1.2486 0.71539 1.4299 0.0911 0 0.26794 0.0911 0.35636 0.0911 0.44656 0 0.89312-0.26883 1.0709-0.80292l1.4299-4.3745c1.6085 0.35546 2.9482 0.62519 4.0191 0.7145 0.35636 0 3.3046 0.35725 6.1617 2.3239 1.2486 0.80292 2.0542 1.7862 2.5883 2.858-0.53677 1.0709-1.4299 2.0542-2.5883 2.8571-2.2328 1.5174-5.2685 2.4105-8.4847 2.4105l-16.342-0.0071 1.5174-3.928c0.26794-0.53766-0.0911-1.2495-0.62519-1.4308l-4.0191-1.6076c-0.53588-0.26883-1.2486 0.08931-1.429 0.6243l-2.5034 6.3421h-2.1399l2.858-7.0539c0.26794-0.53766-0.0911-1.2495-0.62519-1.4308l-4.0191-1.6076a1.5005 1.5005 0 0 0-0.89313 0c-0.26794 0.08931-0.53766 0.35546-0.62519 0.62429l-3.7511 9.5564h-2.2328l4.1102-10.271c0.0911-0.26883 0.0911-0.62519 0-0.89312-0.09021-0.26883-0.35546-0.44656-0.62519-0.62519l-4.0208-1.5174c-0.53766-0.26794-1.2486 0.0911-1.4308 0.62519l-5.0024 12.681h-0.17862c-5.449 0-10.271-2.5008-11.519-5.983 0.35904-2.6794 1.1611-6.1608 2.4141-9.4653zm33.761 11.699-1.4308 3.7502h-2.2328l1.7863-4.4656zm-10.63 3.7502h-2.2328l3.0348-7.6827 1.8774 0.80292zm-9.2867 0h-2.1417l4.287-10.809 1.8774 0.7145zm45.818 2.5918c-2.2328 1.5183-5.2677 2.4114-8.4847 2.4114h-42.158c-6.1608 0-11.433-3.3046-11.788-7.3236 2.5883 2.7705 6.9664 4.5567 11.788 4.5567h42.155c3.6636 0 7.145-0.98422 9.8244-2.7705 0.7145-0.53677 1.4308-1.0709 1.9649-1.6952-0.17505 1.6952-1.337 3.4814-3.301 4.8211zm-8.4856-66.807h-42.158c-3.6636 0-7.145 0.98422-9.8244 2.7705-2.7705 1.8765-4.287 4.4656-4.287 7.2352 0 2.7696 1.5165 5.2685 4.287 7.2361 3.217 2.2328 6.5198 2.6794 7.145 2.6794 1.2486 0.0902 2.7705 0.44656 4.6443 0.89312 3.3939 0.89312 7.8595 2.323 13.305 4.3745 1.9649 0.71539 4.1102 1.6085 6.4305 2.5016 0 0 0.09021 0 0.09021 0.0911h0.0911c2.5883 1.0709 5.449 2.1417 8.3936 3.3939 0.17862 0.0911 0.44656 0.0911 0.7145 0.0911 4.5567-1.0718 9.5564-0.80292 14.022 0.62519 0.44656 0.17684 0.80203 0.17684 1.2486 0.17684 1.2495 0 2.5892-0.62429 3.3939-1.6952 1.3397-1.6952 2.5025-4.0191 3.5725-6.8771 1.8773-5.0015 2.9491-10.808 2.9491-13.487 0.09021-5.5436-6.2492-10.009-14.018-10.009zm9.0188 22.684c-0.98422 2.6794-2.0542 4.7336-3.217 6.2519-0.53677 0.7145-1.4299 0.98422-2.1417 0.7145-2.7705-0.89312-5.8053-1.429-8.8402-1.429-2.0551 0-4.1102 0.17684-6.0741 0.6234-2.5892-1.0709-4.9122-2.0542-7.2361-2.9473l1.5183-4.5567c0.17773-0.62519-0.0911-1.2486-0.71539-1.4308-0.62519-0.17773-1.2495 0.0911-1.4308 0.71539l-1.5183 4.4656c-1.5165-0.6243-3.0348-1.1611-4.4656-1.6952l1.4308-4.2879c0.17863-0.62519-0.09021-1.2486-0.7145-1.4308-0.62519-0.17773-1.2495 0.0911-1.4308 0.71539l-1.4308 4.1977c-1.6076-0.62519-3.0348-1.0718-4.4656-1.6085l1.3397-4.1102c0.17862-0.62519-0.09021-1.2486-0.7145-1.4308-0.62519-0.17773-1.2495 0.0911-1.4308 0.71539l-1.3397 4.1102c-1.6952-0.53766-3.1259-0.98422-4.5567-1.3397l1.4308-4.1977c0.17862-0.62429-0.09021-1.2486-0.7145-1.4299-0.62519-0.17862-1.2504 0.09021-1.4308 0.7145l-1.4308 4.3763c-1.6076-0.35725-2.9473-0.62519-4.1102-0.71629-0.35546 0-3.3037-0.35546-6.1608-2.323-1.2486-0.80292-2.0542-1.7862-2.5883-2.858 0.53677-1.0709 1.4299-2.0542 2.5883-2.8571 2.2328-1.5174 5.2677-2.4105 8.4847-2.4105h16.432l-1.4165 3.9396c-0.26794 0.53766 0.0911 1.2495 0.62519 1.4308l4.0191 1.6076c0.17773 0.0911 0.26794 0.0911 0.44656 0.0911 0.44656 0 0.89312-0.26794 1.0709-0.7145l2.5008-6.343h2.1426l-2.7669 7.1432c-0.26794 0.53677 0.0911 1.2486 0.62519 1.4308l4.0191 1.6076c0.17773 0.0911 0.26794 0.0911 0.44656 0.0911 0.17862 0 0.26794 0 0.44656-0.0911 0.26794-0.09021 0.53588-0.35546 0.6243-0.62429l3.6627-9.5582h2.2328l-4.1093 10.271c-0.0911 0.26794-0.0911 0.62519 0 0.89312 0.09021 0.26794 0.35546 0.44656 0.6243 0.62519l4.0191 1.6076c0.09021 0.0911 0.26794 0.0911 0.44656 0.0911 0.17773 0 0.26794 0 0.44656-0.0911 0.26794-0.0902 0.44656-0.35546 0.62429-0.62519l5.0033-12.681h0.17773c5.449 0 10.271 2.5008 11.52 5.9839-0.44299 2.5874-1.2468 6.0688-2.4981 9.3725zm-33.761-11.698 1.4308-3.7511h2.2319l-1.7863 4.4656zm10.63-3.7511h2.2328l-3.0348 7.6827-1.8774-0.80203zm9.2867 0h2.1417l-4.287 10.809-1.8774-0.71539zm4.8247-2.2328h-42.158c-3.6627 0-7.145 0.98422-9.8244 2.7705-0.7145 0.53766-1.4299 1.0718-1.964 1.696 0.17862-1.7862 1.2486-3.4823 3.217-4.822 2.2328-1.5174 5.2677-2.4105 8.4847-2.4105h42.155c6.1608 0 11.432 3.3046 11.788 7.3236-2.5016-2.7714-6.8771-4.5576-11.699-4.5576z" fill="#fff" stroke-width=".89312"/></g></g></g></svg>
